<?xml version="1.0" encoding="UTF-8" standalone="no" ?>
<!DOCTYPE svg PUBLIC "-//W3C//DTD SVG 1.1//EN" "http://www.w3.org/Graphics/SVG/1.1/DTD/svg11.dtd">
<svg xmlns="http://www.w3.org/2000/svg" xmlns:xlink="http://www.w3.org/1999/xlink" version="1.1" width="1080" height="1080" viewBox="0 0 1080 1080" xml:space="preserve">
<desc>Created with Fabric.js 5.2.4</desc>
<defs>
</defs>
<rect x="0" y="0" width="100%" height="100%" fill="transparent"></rect>
<g transform="matrix(1 0 0 1 540 540)" id="6d6525a0-d33e-4f06-977f-89e9737dfc2c"  >
<rect style="stroke: none; stroke-width: 1; stroke-dasharray: none; stroke-linecap: butt; stroke-dashoffset: 0; stroke-linejoin: miter; stroke-miterlimit: 4; fill: rgb(177,177,177); fill-rule: nonzero; opacity: 1;" vector-effect="non-scaling-stroke"  x="-540" y="-540" rx="0" ry="0" width="1080" height="1080" />
</g>
<g transform="matrix(1 0 0 1 540 540)" id="2e9feca9-3319-44ae-8496-5d68e4efc6fc"  >
</g>
<g transform="matrix(1.49 0 0 1.49 540 540)"  >
<g style="" vector-effect="non-scaling-stroke"   >
		<g transform="matrix(0.78 0 0 0.78 0 -164.65)"  >
<path style="stroke: none; stroke-width: 1; stroke-dasharray: none; stroke-linecap: butt; stroke-dashoffset: 0; stroke-linejoin: miter; stroke-miterlimit: 4; fill: rgb(231,59,55); fill-rule: nonzero; opacity: 1;" vector-effect="non-scaling-stroke"  transform=" translate(-512, -301.2)" d="M 512 301.2 M 502 301.2 C 502 306.72284749830794 506.47715250169205 311.2 512 311.2 C 517.5228474983079 311.2 522 306.72284749830794 522 301.2 C 522 295.67715250169204 517.5228474983079 291.2 512 291.2 C 506.47715250169205 291.2 502 295.67715250169204 502 301.2 Z" stroke-linecap="round" />
</g>
		<g transform="matrix(0.78 0 0 0.78 -84.84 180.9)"  >
<path style="stroke: none; stroke-width: 1; stroke-dasharray: none; stroke-linecap: butt; stroke-dashoffset: 0; stroke-linejoin: miter; stroke-miterlimit: 4; fill: rgb(57,57,58); fill-rule: nonzero; opacity: 1;" vector-effect="non-scaling-stroke"  transform=" translate(-403.4, -743.5)" d="M 400.3 744.5 C 402.40000000000003 743.8 404.40000000000003 743.1 406.5 742.5 C 404.5 743.1 402.4 743.8 400.3 744.5 z M 400.3 744.5 C 402.40000000000003 743.8 404.40000000000003 743.1 406.5 742.5 C 404.5 743.1 402.4 743.8 400.3 744.5 z" stroke-linecap="round" />
</g>
		<g transform="matrix(0.78 0 0 0.78 -0.16 -164.96)"  >
<path style="stroke: none; stroke-width: 1; stroke-dasharray: none; stroke-linecap: butt; stroke-dashoffset: 0; stroke-linejoin: miter; stroke-miterlimit: 4; fill: rgb(231,59,55); fill-rule: nonzero; opacity: 1;" vector-effect="non-scaling-stroke"  transform=" translate(-511.8, -300.8)" d="M 511.8 256.6 C 536.2 256.6 556 276.40000000000003 556 300.8 C 556 325.2 536.2 345 511.8 345 C 487.4 345 467.6 325.2 467.6 300.8 C 467.6 276.40000000000003 487.5 256.6 511.8 256.6 M 511.8 236.60000000000002 C 476.3 236.60000000000002 447.6 265.3 447.6 300.8 C 447.6 336.3 476.3 365 511.8 365 C 547.3 365 576 336.3 576 300.8 C 576 265.3 547.3 236.60000000000002 511.8 236.60000000000002 z" stroke-linecap="round" />
</g>
		<g transform="matrix(0.78 0 0 0.78 0 -15.2)"  >
<path style="stroke: none; stroke-width: 1; stroke-dasharray: none; stroke-linecap: butt; stroke-dashoffset: 0; stroke-linejoin: miter; stroke-miterlimit: 4; fill: rgb(57,57,58); fill-rule: nonzero; opacity: 1;" vector-effect="non-scaling-stroke"  transform=" translate(-512, -492.5)" d="M 730.7 529.5 C 731.1 520.8 731.3000000000001 512.1 731.3000000000001 503.3 C 731.3000000000001 323.70000000000005 645.2 164.2 512 63.80000000000001 C 378.9 164.20000000000002 292.8 323.7 292.8 503.3 C 292.8 512.1 293 520.8 293.40000000000003 529.4 C 237.40000000000003 585.4 202.80000000000004 662.7 202.80000000000004 748.0999999999999 C 202.80000000000004 809.8 220.80000000000004 867.1999999999999 251.90000000000003 915.3999999999999 C 282.20000000000005 865.5999999999999 326.6 825.2999999999998 379.6 800.0999999999999 C 418.6 781.4999999999999 462.3 771.0999999999999 508.40000000000003 771.0999999999999 C 556.7 771.0999999999999 602.3000000000001 782.4999999999999 642.7 802.8 C 695.2 829.0999999999999 739 870.5 768.3000000000001 921.1999999999999 C 801.7 871.8 821.2 812.3 821.2 748.0999999999999 C 821.2 662.6999999999999 786.6 585.4999999999999 730.7 529.4999999999999 z M 351.1 383.4 C 360.3 345.5 374 308.7 391.70000000000005 273.9 C 409.15472717694087 239.6015986092253 430.4948397237821 207.42366160856386 455.30000000000007 178.0000000000001 C 472.70000000000005 157.39999999999998 491.70000000000005 138.09999999999997 512.1 120.49999999999997 C 532.5 138.09999999999997 551.5 157.39999999999998 568.9 177.99999999999997 C 593.6999999999999 207.49999999999997 615.1 239.79999999999995 632.5 273.9 C 650.2 308.7 663.9 345.5 673.1 383.4 C 681.8000000000001 419.2 686.6 456.09999999999997 687.3000000000001 493.29999999999995 C 637.4 459 577 438.9 512 438.9 C 447 438.9 386.7 459 336.9 493.29999999999995 C 337.59999999999997 456.09999999999997 342.4 419.19999999999993 351.09999999999997 383.4 z M 260.5 832.5999999999999 C 251.4 805.5999999999999 246.8 777.0999999999999 246.8 748.1999999999999 C 246.8 712.4 253.8 677.5999999999999 267.6 644.9999999999999 C 276 625.1999999999999 286.6 606.5999999999999 299.5 589.4999999999999 C 309.2 650.9999999999999 329 709.1999999999999 357.3 762.0999999999999 C 320.90000000000003 779.8999999999999 288.3 803.6999999999999 260.5 832.5999999999999 z M 624.7 747.3 C 624 747 623.2 746.8 622.5 746.5 C 622.1 746.3 621.6 746.2 621.2 746 C 620.6 745.8 619.9000000000001 745.5 619.3000000000001 745.3 C 618.5000000000001 745 617.8000000000001 744.8 617.0000000000001 744.5 C 616.2000000000002 744.2 615.5000000000001 744 614.7000000000002 743.8 L 613.8000000000002 743.5 C 612.8000000000002 743.2 611.7000000000002 742.8 610.7000000000002 742.5 C 609.5000000000001 742.1 608.3000000000002 741.8 607.2000000000002 741.4 L 604.2000000000002 740.5 C 604.0000000000001 740.4 603.8000000000002 740.4 603.5000000000001 740.3 C 602.4000000000001 740 601.2000000000002 739.5999999999999 600.1000000000001 739.3 C 598.9000000000001 739 597.7000000000002 738.6999999999999 596.6000000000001 738.4 L 593.0000000000001 737.5 L 589.4000000000001 736.6 C 588.4000000000001 736.3000000000001 587.3000000000001 736.1 586.3000000000001 735.9 C 585.1 735.6 583.9000000000001 735.4 582.7 735.1 C 581.4000000000001 734.8000000000001 580.2 734.5 578.9000000000001 734.3000000000001 L 578.6000000000001 734.3000000000001 C 577.7000000000002 734.1 576.7000000000002 733.9000000000001 575.8000000000002 733.7 C 575.4000000000002 733.6 575.1000000000001 733.6 574.7000000000002 733.5 C 573.6000000000001 733.3 572.5000000000001 733.1 571.3000000000002 732.9 C 570.1000000000001 732.6999999999999 568.9000000000002 732.5 567.7000000000002 732.1999999999999 L 562.3000000000002 731.3 C 561.4000000000002 731.1999999999999 560.4000000000002 731 559.5000000000002 730.9 C 558.7000000000003 730.8 557.9000000000002 730.6 557.0000000000002 730.5 C 554.4000000000002 730.1 551.9000000000002 729.8 549.3000000000002 729.5 C 548.1000000000001 729.4 547.0000000000002 729.2 545.8000000000002 729.1 L 545.4000000000002 729.1 C 544.5000000000002 729 543.6000000000003 728.9 542.6000000000003 728.8000000000001 C 541.5000000000002 728.7 540.5000000000002 728.6 539.4000000000002 728.5000000000001 C 537.7000000000002 728.3000000000001 536.0000000000002 728.2000000000002 534.3000000000002 728.1000000000001 C 533.5000000000002 728.0000000000001 532.8000000000002 728.0000000000001 532.0000000000002 727.9000000000001 C 531.1000000000003 727.8000000000001 530.1000000000003 727.8000000000001 529.2000000000003 727.7 C 528.8000000000003 727.7 528.4000000000003 727.7 528.0000000000002 727.6 C 526.9000000000002 727.5 525.9000000000002 727.5 524.8000000000002 727.4 C 524.3000000000002 727.4 523.8000000000002 727.3 523.3000000000002 727.3 C 522.0000000000002 727.1999999999999 520.7000000000002 727.1999999999999 519.4000000000002 727.1999999999999 C 518.6000000000003 727.1999999999999 517.9000000000002 727.0999999999999 517.1000000000003 727.0999999999999 C 515.9000000000002 727.0999999999999 514.7000000000003 727.0999999999999 513.6000000000003 726.9999999999999 L 499.7000000000003 726.9999999999999 C 497.40000000000026 726.9999999999999 495.10000000000025 727.0999999999999 492.8000000000003 727.1999999999999 C 491.9000000000003 727.1999999999999 490.9000000000003 727.3 490.0000000000003 727.3 C 489.2000000000003 727.3 488.5000000000003 727.4 487.7000000000003 727.4 C 486.3000000000003 727.5 484.90000000000026 727.6 483.60000000000025 727.6999999999999 C 482.2000000000003 727.8 480.90000000000026 727.9 479.5000000000002 727.9999999999999 C 478.10000000000025 728.0999999999999 476.80000000000024 728.1999999999999 475.4000000000002 728.3999999999999 C 474.8000000000002 728.3999999999999 474.2000000000002 728.4999999999999 473.6000000000002 728.5999999999999 L 465.8000000000002 729.4999999999999 C 464.70000000000016 729.5999999999999 463.70000000000016 729.7999999999998 462.6000000000002 729.8999999999999 C 461.6000000000002 729.9999999999999 460.50000000000017 730.1999999999998 459.50000000000017 730.2999999999998 C 456.3000000000002 730.7999999999998 453.1000000000002 731.1999999999998 450.00000000000017 731.7999999999998 C 449.3000000000002 731.8999999999999 448.6000000000002 731.9999999999999 447.90000000000015 732.1999999999998 C 447.00000000000017 732.2999999999998 446.20000000000016 732.4999999999998 445.3000000000001 732.6999999999998 C 444.2000000000001 732.8999999999999 443.0000000000001 733.0999999999998 441.90000000000015 733.2999999999998 C 441.00000000000017 733.4999999999999 440.20000000000016 733.5999999999998 439.3000000000001 733.7999999999998 C 438.90000000000015 733.8999999999999 438.5000000000001 733.8999999999999 438.2000000000001 733.9999999999999 C 437.5000000000001 734.0999999999999 436.8000000000001 734.2999999999998 436.1000000000001 734.3999999999999 C 434.9000000000001 734.6999999999998 433.7000000000001 734.8999999999999 432.50000000000006 735.1999999999998 C 431.30000000000007 735.4999999999998 430.1000000000001 735.6999999999998 428.90000000000003 735.9999999999998 C 428.70000000000005 735.9999999999998 428.50000000000006 736.0999999999998 428.3 736.0999999999998 C 427.8 736.1999999999998 427.3 736.2999999999998 426.8 736.4999999999998 C 425.7 736.7999999999997 424.5 737.0999999999998 423.3 737.3999999999997 C 422 737.6999999999997 420.8 737.9999999999998 419.5 738.3999999999997 C 419.1 738.4999999999998 418.6 738.5999999999998 418.1 738.7999999999997 C 416.8 739.1999999999997 415.40000000000003 739.4999999999998 414.1 739.8999999999997 C 412.6 740.2999999999997 411.1 740.7999999999997 409.5 741.1999999999997 C 408.5 741.4999999999997 407.4 741.7999999999997 406.4 742.1999999999997 C 404.29999999999995 742.7999999999997 402.29999999999995 743.4999999999997 400.2 744.1999999999997 C 399.5 744.3999999999997 398.8 744.6999999999997 398.09999999999997 744.8999999999997 C 383.09999999999997 717.3999999999997 370.7 688.4999999999998 361.09999999999997 658.6999999999997 C 349.4 622.5999999999997 341.9 585.0999999999997 338.59999999999997 547.0999999999997 C 337.99999999999994 540.3999999999996 337.59999999999997 533.7999999999997 337.29999999999995 527.0999999999997 C 337.19999999999993 525.8999999999996 337.19999999999993 524.6999999999997 337.19999999999993 523.4999999999997 C 337.0999999999999 522.2999999999996 337.0999999999999 521.0999999999997 337.0999999999999 519.8999999999996 C 337.0999999999999 518.6999999999996 336.9999999999999 517.4999999999997 336.9999999999999 516.2999999999996 C 336.9999999999999 515.0999999999996 336.89999999999986 513.8999999999996 336.89999999999986 512.5999999999996 C 355.6999999999999 498.59999999999957 376.09999999999985 486.79999999999956 397.89999999999986 477.59999999999957 C 433.9999999999999 462.29999999999956 472.39999999999986 454.59999999999957 511.9999999999999 454.59999999999957 C 551.5999999999999 454.59999999999957 589.9999999999999 462.3999999999996 626.0999999999999 477.59999999999957 C 647.8999999999999 486.79999999999956 668.3 498.49999999999955 687.0999999999999 512.5999999999996 L 687.0999999999999 512.6999999999996 C 687.0999999999999 513.6999999999996 687.0999999999999 514.5999999999996 686.9999999999999 515.5999999999996 C 686.9999999999999 516.9999999999995 686.8999999999999 518.3999999999995 686.8999999999999 519.8999999999995 C 686.8999999999999 520.5999999999996 686.8999999999999 521.1999999999995 686.7999999999998 521.8999999999995 C 686.6999999999998 523.6999999999995 686.6999999999998 525.3999999999995 686.5999999999998 527.1999999999995 C 686.2999999999998 533.8999999999995 685.7999999999998 540.4999999999994 685.2999999999998 547.1999999999995 C 681.9999999999999 585.6999999999995 674.2999999999998 623.6999999999995 662.2999999999998 660.1999999999995 C 652.5999999999998 690.4999999999994 639.9999999999999 719.5999999999995 624.6999999999998 747.2999999999995 z M 761.5 838.1999999999999 C 734.0003987008256 808.2762503462701 701.3912551608041 783.4892378111758 665.2 764.9999999999999 C 694.3000000000001 711.2999999999998 714.7 652.1999999999999 724.6 589.4999999999999 C 737.4 606.5999999999999 748 625.0999999999999 756.4 644.9999999999999 C 770.1999999999999 677.6999999999999 777.1999999999999 712.3999999999999 777.1999999999999 748.1999999999999 C 777.1999999999999 779.1999999999999 771.9 809.4999999999999 761.4999999999999 838.1999999999999 z" stroke-linecap="round" />
</g>
		<g transform="matrix(0.78 0 0 0.78 0 287.3)"  >
<path style="stroke: none; stroke-width: 1; stroke-dasharray: none; stroke-linecap: butt; stroke-dashoffset: 0; stroke-linejoin: miter; stroke-miterlimit: 4; fill: rgb(231,59,55); fill-rule: nonzero; opacity: 1;" vector-effect="non-scaling-stroke"  transform=" translate(-512, -879.7)" d="M 512 819.3 C 520.7 819.3 536.7 842.1999999999999 536.7 879.6999999999999 C 536.7 917.1999999999999 520.7 940.0999999999999 512 940.0999999999999 C 503.29999999999995 940.0999999999999 487.3 917.1999999999999 487.3 879.6999999999999 C 487.3 842.1999999999999 503.3 819.3 512 819.3 M 512 799.3 C 487.3 799.3 467.3 835.3 467.3 879.6999999999999 C 467.3 924.0999999999999 487.3 960.0999999999999 512 960.0999999999999 C 536.7 960.0999999999999 556.7 924.0999999999999 556.7 879.6999999999999 C 556.7 835.3 536.7 799.3 512 799.3 z" stroke-linecap="round" />
</g>
</g>
</g>
</svg>